<svg xmlns="http://www.w3.org/2000/svg" viewBox="0 0 600 131" style="height: 90px;margin: 0;padding: 0;width: 187px;" class="koach-svg"><title>Koach logo</title><desc>Koach Financial</desc><path d="M154.81,84.17l-17.23,16.27v27.76h-10V0.51h10V88.58l54.56-52.84h13.21L162.27,77.47l42.89,50.74h-13.4Z" style="fill:#fff"></path><path d="M392,117.3c-8.23,9-18.57,13.21-31.4,13.21-15.89,0-32.36-10.91-32.36-30.82,0-20.1,16.27-30.63,32.36-30.63C373.48,69,384,73.26,392,82.26V63.49c0-13.78-11.11-21.25-24.89-21.25-11.49,0-20.49,4-28.91,13.59l-5.56-6.89c9.58-10.34,20.3-15.51,35.61-15.51,18.76,0,33.7,9,33.7,29.67v65.1H392V117.3Zm0-27.57C385.54,81.3,375.2,76.9,364.1,76.9c-15.32,0-25.28,9.76-25.28,23,0,13,10,22.79,25.28,22.79,11.1,0,21.44-4.21,27.95-12.64V89.72Z" style="fill:#fff"></path><path d="M472.67,33.44c16.08,0,25.27,6.32,32.74,15.7l-6.89,6.13c-6.7-9.19-15.12-12.83-25.27-12.83-21.63,0-34.85,17.23-34.85,39.44s13.21,39.63,34.85,39.63c10.15,0,18.57-3.83,25.27-13l6.89,6.13c-7.47,9.58-16.66,15.89-32.74,15.89-27.18,0-45-21.63-45-48.63S445.49,33.44,472.67,33.44Z" style="fill:#fff"></path><path d="M537.59,74.09V58.33c5.93-8.42,18.19-15.89,30.06-15.89,13.4,0,22.4,5,22.4,22.78v8.87h10v-11c0-20.87-10.34-29.67-29.1-29.67-13.4,0-26.61,8.23-33.31,16.27V0.51h-10V74.09h10Z" style="fill:#fff"></path><rect x="590.04" y="91.39" width="9.96" height="36.82" style="fill:#fff"></rect><rect x="527.63" y="91.39" width="9.96" height="36.82" style="fill:#fff"></rect><path d="M254.53,120.39c-16.16-4.28-25.23-20.75-25.23-38.52,0-17.6,9.07-34,25.23-38.33V34.23c-22.11,4-36,23.6-36,47.65s13.85,43.8,36,47.83v-9.31Z" style="fill:#fff"></path><path d="M271.83,34.27v9.35c16.2,4.38,25,20.74,25,38.25,0,17.68-8.84,34.06-25,38.45v9.34c22.18-4.14,35.77-23.84,35.77-47.79S294,38.38,271.83,34.27Z" style="fill:#fff"></path><polygon points="93.29 0.5 63.85 0.5 0 64.35 63.85 128.21 93.29 128.21 29.44 64.35 93.29 0.5" style="fill: #08e8de;"></polygon></svg>